# xmcd
# 
# Track frame offsets:
#     150
#     18465
#     38165
#     62552
#     80570
#     104197
#     123815
#     142022
#     158790
#     179602
#     196065
#     217015
#     233972
#     255650
#     277900
#     294972
#     309620
#     326752
# 
# Disc length: 4644
# 
# Revision: 9
# Processed by: cddbd v1.5.2PL0 Copyright (c) Steve Scherf et al.
# Submitted via: fre:ac v1.0.17
# 
DISCID=0b122212
DTITLE=Various Artist - Best of Super Stars  -  CD2
DYEAR=1998
DGENRE=Pop
TTITLE0=Bee Gees - You win again
TTITLE1=Rod Stewart - Sailing
TTITLE2=Joe Cocker - Don`t you love me anymore
TTITLE3=Genesis - Follow you, follow me
TTITLE4=R.E.M. - Man on the moon
TTITLE5=Mick Fagger - Sweet thing
TTITLE6=Take That - Back for good
TTITLE7=Simply Red - Say you love me
TTITLE8=Phil Collins - Do you remember?
TTITLE9=Mike Oldfield - Moonlight shadow
TTITLE10=Bette Middler - From a distance
TTITLE11=Alphaville - Forever young
TTITLE12=Santana and Willie Nelon - They all went to Mexico
TTITLE13=4 non Blondes - What´s up
TTITLE14=UB40 - Kingston Town
TTITLE15=Fleetwood Mac - Don´t stop
TTITLE16=A-ha - Take on me
TTITLE17=Vangelis - Conquest of paradise
EXTD=
EXTT0=
EXTT1=
EXTT2=
EXTT3=
EXTT4=
EXTT5=
EXTT6=
EXTT7=
EXTT8=
EXTT9=
EXTT10=
EXTT11=
EXTT12=
EXTT13=
EXTT14=
EXTT15=
EXTT16=
EXTT17=
PLAYORDER=
